<svg width="164" height="63" viewBox="0 0 164 63" fill="none" xmlns="http://www.w3.org/2000/svg">
<path fill-rule="evenodd" clip-rule="evenodd" d="M0 5.47018V10.9403L0.0904947 10.9301C1.13469 10.8123 1.90875 10.6492 2.79353 10.3604C4.43071 9.82595 5.89923 8.98346 7.24745 7.80517C7.67274 7.43346 8.28828 6.79161 8.68026 6.31104C10.0686 4.60907 11.0167 2.49372 11.3537 0.346242C11.3762 0.203417 11.3979 0.0670923 11.402 0.0432803L11.4094 0H5.70471H0V5.47018ZM16.8484 0.035411C16.8442 0.0548951 16.8261 0.180596 16.8083 0.314765C16.7904 0.448934 16.7516 0.700353 16.7219 0.873473C16.1176 4.39718 14.54 7.63102 12.1194 10.3079C11.8826 10.5698 11.2225 11.234 10.938 11.4966C8.25469 13.9742 4.88965 15.6202 1.30391 16.2092C0.91195 16.2736 0.561146 16.3219 0.267549 16.352C0.176661 16.3613 0.079289 16.3725 0.0511492 16.3769L0 16.3849V19.587V22.789L0.0590182 22.7889C0.241644 22.7884 1.11705 22.7167 1.6053 22.6621C9.55331 21.774 16.6071 16.99 20.4352 9.89151C21.9796 7.02778 22.9636 3.75003 23.2442 0.535101C23.2619 0.331684 23.2802 0.128078 23.2847 0.0826259L23.2928 0H20.0745H16.8562L16.8484 0.035411ZM27.874 0.295092C27.4202 7.27762 24.4081 13.8985 19.413 18.8937C14.9167 23.3899 9.10984 26.2795 2.84075 27.1403C1.97627 27.2589 0.574413 27.3842 0.106233 27.3845L0 27.3846V31.0044C0 34.0373 0.00344667 34.6242 0.0212938 34.6242C0.178581 34.6242 1.27988 34.5566 1.69972 34.5212C7.29248 34.0494 12.6354 32.3276 17.4143 29.4569C22.589 26.3484 26.9122 22.0183 30.0157 16.8356C31.2953 14.6989 32.3632 12.404 33.1887 10.0174C34.1547 7.22499 34.7899 4.22072 35.0406 1.25906C35.0751 0.852589 35.1277 0.108326 35.1277 0.0281401C35.1277 0.0011961 34.9744 0 31.5105 0H27.8932L27.874 0.295092ZM41.6747 0.0606395C41.6747 0.287632 41.6079 1.38634 41.5558 2.0145C41.4706 3.04373 41.3893 3.72144 41.1754 5.18364L41.1665 5.24448L41.2672 5.23352C41.4952 5.20873 41.9225 5.1409 42.2226 5.08184C44.1248 4.70746 45.8947 3.87619 47.4266 2.63772C48.1031 2.09077 48.8312 1.34408 49.3672 0.647566C49.5261 0.441081 49.7281 0.160955 49.8032 0.0432803L49.8308 0H45.7528H41.6747V0.0606395ZM56.1638 0.279354C54.8113 2.99307 52.6831 5.39524 50.1105 7.1119C48.1868 8.39554 46.0499 9.29138 43.823 9.74778C42.6771 9.98264 41.3844 10.1191 40.302 10.1196L40.0861 10.1197L40.0604 10.2102C39.5135 12.1308 38.7195 14.2855 37.8927 16.0923C37.7936 16.3088 37.7139 16.4874 37.7155 16.4893C37.7221 16.4975 38.3904 16.5577 38.716 16.5796C41.0425 16.7357 43.4048 16.5462 45.6723 16.0215C51.5628 14.6584 56.7456 11.041 60.0813 5.96481C61.2542 4.17961 62.2099 2.18491 62.8313 0.224271L62.9025 0H59.6027H56.303L56.1638 0.279354ZM62.8585 10.7769C61.9369 11.9427 60.7258 13.2177 59.5314 14.2795C55.6928 17.6923 50.9613 20.0018 45.9228 20.9224C42.937 21.4679 39.8382 21.5298 36.8273 21.1043C36.4543 21.0516 35.719 20.93 35.4975 20.8844C35.4196 20.8685 35.3518 20.8602 35.3467 20.866C35.3417 20.8719 35.2539 21.0114 35.1515 21.1759C34.906 21.5705 34.296 22.4889 33.9903 22.9242C33.1752 24.0851 32.2594 25.2623 31.3531 26.3143L31.2107 26.4797L31.3239 26.5161C33.5478 27.2317 36.264 27.7748 38.7317 27.9973C39.9923 28.111 40.4895 28.1316 41.9974 28.1319C43.2917 28.1322 43.4892 28.1269 44.3817 28.0687C49.9777 27.7034 55.4341 26.0106 60.2223 23.1543C60.9814 22.7015 61.9821 22.0488 62.6735 21.5557L63 21.3227V15.9652C63 13.0185 62.9982 10.6077 62.9961 10.6077C62.9939 10.6078 62.932 10.6838 62.8585 10.7769ZM27.6055 30.1493C27.1785 30.5434 26.339 31.2609 25.7473 31.7374C24.4455 32.7857 22.9307 33.8643 21.6041 34.6879C21.4894 34.7591 21.4672 34.7793 21.4739 34.8062C21.4935 34.8865 21.5954 35.4669 21.6462 35.7888C22.076 38.5078 22.1187 41.293 21.7727 44.0593C20.9879 50.3333 18.1214 56.2333 13.6608 60.7556C12.8749 61.5523 12.1693 62.2014 11.4181 62.8187C11.3141 62.9041 11.2225 62.9798 11.2142 62.9871C11.206 62.9943 13.4546 63.0001 16.2111 63L21.2229 62.9997L21.4331 62.7317C22.5723 61.2791 23.5782 59.7815 24.4927 58.1766C25.1158 57.0829 25.7773 55.7515 26.2871 54.5645C28.6114 49.1536 29.5863 43.24 29.1303 37.3155C28.9945 35.5491 28.7372 33.8377 28.3426 32.0746C28.1842 31.3666 27.8218 29.9801 27.7957 29.9822C27.7903 29.9826 27.7047 30.0578 27.6055 30.1493ZM61.0564 31.3692C59.506 32.0754 57.7394 32.7431 55.9966 33.2811C55.6044 33.4023 54.6337 33.6831 54.5565 33.698C54.5256 33.7038 54.5251 33.7144 54.5301 34.2231C54.5542 36.6599 54.133 39.0858 53.2887 41.3705C51.9446 45.0082 49.5455 48.205 46.4108 50.5348C43.3687 52.796 39.7421 54.1499 35.9775 54.43C35.0533 54.4988 33.9958 54.5047 33.121 54.4459L32.9794 54.4363L32.9109 54.6225C32.782 54.9722 32.4487 55.7996 32.2398 56.2879C31.5613 57.8742 30.8189 59.3642 29.9664 60.8506C29.8874 60.9884 29.8283 61.1063 29.8352 61.1127C29.8531 61.1296 30.665 61.2889 31.1066 61.3622C33.206 61.7109 35.323 61.8086 37.4254 61.654C44.5128 61.1329 51.0594 57.7737 55.6436 52.3061C58.6552 48.7141 60.6581 44.3547 61.4173 39.7391C61.7806 37.5305 61.8618 35.315 61.6619 33.0583C61.6134 32.51 61.5538 32.0249 61.4444 31.289C61.4387 31.2507 61.4269 31.2176 61.4183 31.2154C61.4097 31.2132 61.2468 31.2824 61.0564 31.3692ZM35.4896 34.5599C35.4896 34.5678 35.507 34.7537 35.5282 34.973C35.5997 35.711 35.6541 36.51 35.6974 37.457C35.724 38.0384 35.7239 40.2961 35.6972 40.8723C35.5791 43.4274 35.3227 45.5785 34.8683 47.8273C34.8378 47.9781 34.8129 48.1084 34.8129 48.1171C34.8129 48.1378 35.4131 48.1199 35.7729 48.0884C38.7324 47.8291 41.4062 46.678 43.6487 44.6978C43.9228 44.4559 44.4876 43.8922 44.7301 43.6186C45.5408 42.7041 46.183 41.7635 46.7185 40.707C47.4883 39.1878 47.958 37.5642 48.1184 35.8675C48.1455 35.5817 48.1744 35.1362 48.1746 35.0037L48.1747 34.9189L48.0841 34.9296C45.9788 35.1773 43.3556 35.2635 41.1081 35.1586C39.373 35.0776 37.6138 34.8921 35.9589 34.6156C35.5072 34.5402 35.4896 34.5381 35.4896 34.5599ZM16.234 37.5378C14.3668 38.3691 12.4481 39.0526 10.2528 39.6686L10.1735 39.6908L10.1544 40.1203C9.99423 43.7229 8.80802 47.1281 6.69659 50.0464C5.6329 51.5165 4.29516 52.8775 2.84075 53.9691C2.03102 54.5769 1.06107 55.1837 0.208594 55.6156L0.000125906 55.7213L6.29528e-05 59.2501L0 62.7788L0.29934 62.6767C3.76033 61.4969 6.9981 59.4509 9.61614 56.789C13.573 52.7659 15.9797 47.5284 16.4456 41.9268C16.5099 41.1537 16.5173 40.9452 16.5173 39.8965C16.5173 38.8473 16.5095 38.6283 16.4458 37.8741C16.429 37.6751 16.4152 37.5033 16.4151 37.4925C16.4148 37.4625 16.3878 37.4693 16.234 37.5378ZM5.18574 40.7243C4.44639 40.8362 3.45683 40.951 2.6248 41.0214C1.84688 41.0873 0.657983 41.1553 0.278063 41.1557C0.190055 41.1558 0.0914705 41.1604 0.0590182 41.1657L0 41.1754V46.0223V50.8692L0.0496225 50.8377C0.170413 50.7613 0.592858 50.4474 0.827043 50.2601C3.44692 48.1652 5.13248 45.111 5.49987 41.793C5.56778 41.1797 5.59148 40.6655 5.55165 40.6698C5.54084 40.671 5.37617 40.6955 5.18574 40.7243ZM62.7212 51.966C60.2914 56.0034 56.9873 59.4396 53.0456 62.028C52.6583 62.2823 52.0823 62.6403 51.7196 62.8521L51.4794 62.9924L57.2345 62.9963C60.3997 62.9985 62.9919 62.9979 62.9947 62.9951C62.9977 62.9921 62.9983 60.4081 62.9961 57.2527L62.9921 51.5156L62.7212 51.966Z" fill="black"/>
<path d="M81.3524 28C79.5966 28 77.9645 27.8125 76.456 27.4375C74.9722 27.0625 73.6121 26.5 72.3756 25.7499C71.139 24.9999 70.0139 24.05 69 22.9L71.5966 19.5625C73.1051 21.2625 74.6383 22.4875 76.1963 23.2375C77.7543 23.9875 79.51 24.3625 81.4636 24.3625C82.6754 24.3625 83.8377 24.2125 84.9505 23.9125C86.0634 23.5875 86.966 23.125 87.6584 22.525C88.3509 21.9 88.697 21.125 88.697 20.2C88.697 19.625 88.5116 19.1375 88.1407 18.7375C87.7944 18.3375 87.3123 18.0125 86.694 17.7624C86.1005 17.4875 85.4328 17.2625 84.6909 17.0875C83.9737 16.9125 83.2566 16.775 82.5394 16.675C81.8223 16.5499 81.1793 16.4625 80.6105 16.4125C79.0279 16.1624 77.5935 15.8375 76.3076 15.4375C75.0464 15.0375 73.9583 14.5375 73.0433 13.9375C72.153 13.3125 71.4729 12.5624 71.0031 11.6875C70.5332 10.8125 70.2983 9.81249 70.2983 8.68749C70.2983 7.48749 70.5703 6.4125 71.1144 5.4625C71.6831 4.5125 72.4621 3.7125 73.4513 3.0625C74.4652 2.3875 75.6399 1.875 76.9753 1.525C78.3106 1.175 79.7573 1 81.3153 1C82.9722 1 84.4807 1.175 85.8408 1.525C87.2257 1.875 88.4498 2.39999 89.5132 3.1C90.6012 3.775 91.4915 4.6125 92.1839 5.6125L89.5132 8.5375C88.8454 7.68749 88.0789 6.975 87.2133 6.39999C86.3725 5.825 85.4452 5.3875 84.4312 5.08749C83.4173 4.7875 82.3416 4.6375 81.204 4.6375C79.9429 4.6375 78.8177 4.7875 77.8285 5.08749C76.8393 5.3875 76.0479 5.8125 75.4544 6.36249C74.8857 6.88749 74.6012 7.5375 74.6012 8.3125C74.6012 8.93749 74.7743 9.48749 75.1206 9.96249C75.4668 10.4375 75.9613 10.8375 76.6043 11.1625C77.2473 11.4625 78.0263 11.725 78.9413 11.95C79.8563 12.1499 80.8825 12.3375 82.0201 12.5125C83.4792 12.7125 84.864 12.9749 86.1747 13.3C87.5101 13.6 88.6848 14.0125 89.6986 14.5375C90.7372 15.0375 91.541 15.7 92.1098 16.525C92.7032 17.325 93 18.35 93 19.6C93 21.275 92.5178 22.75 91.5534 24.025C90.5889 25.3 89.2411 26.2875 87.51 26.9874C85.779 27.6625 83.7264 28 81.3524 28Z" fill="black"/>
<path d="M98 28V1H119V5.01143H102.101V23.9886H119V28H98ZM100.165 16.1586V12.1471H116.912V16.1586H100.165Z" fill="black"/>
<path d="M122 28L134.641 1H139.396L152 28H147.438L138.933 9.87142C138.726 9.43428 138.507 8.97142 138.275 8.48285C138.044 7.96857 137.812 7.44143 137.58 6.90143C137.348 6.36143 137.128 5.82143 136.922 5.28142C136.716 4.71571 136.522 4.16285 136.342 3.62285L137.502 3.58428C137.295 4.17571 137.076 4.75428 136.844 5.31999C136.638 5.88571 136.406 6.43857 136.149 6.97857C135.917 7.51857 135.685 8.04571 135.453 8.55999C135.221 9.04857 135.002 9.53714 134.796 10.0257L126.368 28H122ZM127.528 21.5971L129.152 17.5857H144.461L145.35 21.5971H127.528Z" fill="black"/>
<path d="M71 63V36H74.9259L86.2593 51.39H84.7778L96.1481 36H100V63H96V51.6214C96 49.4614 96.0494 47.4429 96.1481 45.5656C96.2716 43.6885 96.4691 41.7857 96.7408 39.8571L97.1852 41.4L86.7037 55.2472H84.2592L73.8518 41.4386L74.2592 39.8571C74.5555 41.76 74.7531 43.65 74.8519 45.5272C74.9506 47.3786 75 49.41 75 51.6214V63H71Z" fill="black"/>
<path d="M105 63L116.799 36H121.237L133 63H128.742L120.804 44.8714C120.612 44.4342 120.407 43.9714 120.191 43.4829C119.974 42.9686 119.758 42.4414 119.541 41.9014C119.324 41.3614 119.12 40.8214 118.928 40.2814C118.735 39.7157 118.555 39.1628 118.386 38.6228L119.469 38.5842C119.277 39.1757 119.072 39.7543 118.856 40.32C118.663 40.8857 118.447 41.4385 118.206 41.9785C117.989 42.5186 117.773 43.0457 117.556 43.5599C117.341 44.0485 117.135 44.5371 116.943 45.0257L109.077 63H105ZM110.16 56.5972L111.675 52.5857H125.964L126.794 56.5972H110.16Z" fill="black"/>
<path d="M138 63V36H141.765L161.131 58.1014L160.844 58.4486C160.725 57.7029 160.629 56.9057 160.557 56.0571C160.485 55.1828 160.414 54.2828 160.342 53.3572C160.294 52.4314 160.247 51.4928 160.199 50.5414C160.174 49.5643 160.15 48.6 160.127 47.6485C160.127 46.6972 160.127 45.7714 160.127 44.8714V36H164V63H160.162L141.048 41.7086L141.156 41.1685C141.228 41.8628 141.287 42.5829 141.336 43.3286C141.383 44.0485 141.443 44.7814 141.515 45.5272C141.586 46.2729 141.646 47.0057 141.694 47.7257C141.765 48.4457 141.813 49.1529 141.838 49.8471C141.862 50.5414 141.873 51.1843 141.873 51.7757V63H138Z" fill="black"/>
<path d="M161.013 8C160.461 8 159.953 7.8465 159.487 7.53948C159.031 7.22223 158.668 6.79752 158.401 6.26535C158.134 5.7332 158 5.14475 158 4.5C158 4.00878 158.077 3.55849 158.233 3.14912C158.397 2.72954 158.613 2.356 158.88 2.02851C159.155 1.70103 159.474 1.4503 159.836 1.27632C160.207 1.09211 160.599 1 161.013 1C161.418 1 161.797 1.09211 162.151 1.27632C162.513 1.46053 162.832 1.71127 163.108 2.02851C163.392 2.34576 163.612 2.71419 163.768 3.13378C163.923 3.55336 164 4.00878 164 4.5C164 4.99123 163.923 5.44665 163.768 5.86623C163.612 6.28582 163.392 6.65936 163.108 6.98685C162.832 7.3041 162.513 7.55483 162.151 7.73904C161.797 7.91302 161.418 8 161.013 8ZM161.013 7.20176C161.435 7.20176 161.824 7.08407 162.177 6.84869C162.53 6.60307 162.811 6.2756 163.018 5.86623C163.233 5.45688 163.341 5.00147 163.341 4.5C163.341 3.98831 163.233 3.5329 163.018 3.13378C162.811 2.72442 162.53 2.39694 162.177 2.15132C161.824 1.90571 161.435 1.7829 161.013 1.7829C160.573 1.7829 160.176 1.90571 159.823 2.15132C159.479 2.39694 159.198 2.72442 158.983 3.13378C158.767 3.5329 158.66 3.98831 158.66 4.5C158.66 5.00147 158.763 5.45688 158.97 5.86623C159.185 6.2756 159.47 6.60307 159.823 6.84869C160.176 7.08407 160.573 7.20176 161.013 7.20176ZM161.646 6.29605L161.077 4.76098L161.646 4.54605L162.306 6.29605H161.646ZM159.927 6.29605V2.58114H161.246C161.539 2.58114 161.78 2.6886 161.97 2.90351C162.168 3.11843 162.268 3.39475 162.268 3.73246C162.268 4.10089 162.159 4.38744 161.945 4.59211C161.737 4.79679 161.5 4.89912 161.233 4.89912H160.263L160.535 4.71492V6.29605H159.927ZM160.535 4.45396L160.289 4.30044H161.052C161.233 4.30044 161.379 4.25439 161.492 4.16228C161.613 4.05995 161.673 3.93202 161.673 3.77851C161.673 3.60454 161.616 3.4715 161.504 3.37939C161.392 3.28728 161.25 3.24123 161.077 3.24123H160.25L160.535 3.07237V4.45396Z" fill="black"/>
</svg>
