<svg width="27" height="22" viewBox="0 0 27 22" fill="none" xmlns="http://www.w3.org/2000/svg">
<path d="M24.3 0H2.7C1.215 0 0.0135 1.2375 0.0135 2.75L0 19.25C0 20.7625 1.215 22 2.7 22H24.3C25.785 22 27 20.7625 27 19.25V2.75C27 1.2375 25.785 0 24.3 0ZM23.76 5.84375L14.2155 11.9213C13.7835 12.1962 13.2165 12.1962 12.7845 11.9213L3.24 5.84375C3.10463 5.76635 2.98609 5.66178 2.89155 5.53637C2.79701 5.41096 2.72843 5.26732 2.68998 5.11413C2.65152 4.96095 2.64398 4.80141 2.66781 4.64517C2.69164 4.48893 2.74635 4.33924 2.82863 4.20516C2.91091 4.07108 3.01904 3.9554 3.14648 3.86512C3.27392 3.77483 3.41803 3.71183 3.57007 3.67991C3.72211 3.64799 3.87893 3.64783 4.03104 3.67943C4.18315 3.71103 4.32738 3.77373 4.455 3.86375L13.5 9.625L22.545 3.86375C22.6726 3.77373 22.8169 3.71103 22.969 3.67943C23.1211 3.64783 23.2779 3.64799 23.4299 3.67991C23.582 3.71183 23.7261 3.77483 23.8535 3.86512C23.981 3.9554 24.0891 4.07108 24.1714 4.20516C24.2536 4.33924 24.3084 4.48893 24.3322 4.64517C24.356 4.80141 24.3485 4.96095 24.31 5.11413C24.2716 5.26732 24.203 5.41096 24.1085 5.53637C24.0139 5.66178 23.8954 5.76635 23.76 5.84375Z" fill="black"/>
</svg>
