<svg width="59" height="60" viewBox="0 0 59 60" fill="none" xmlns="http://www.w3.org/2000/svg">
<path d="M57.5 30C57.5 45.764 44.9403 58.5 29.5 58.5C14.0597 58.5 1.5 45.764 1.5 30C1.5 14.236 14.0597 1.5 29.5 1.5C44.9403 1.5 57.5 14.236 57.5 30Z" stroke="white" stroke-width="3"/>
<path d="M25.4934 38.5351C25.0212 38.842 24.5428 38.8595 24.0583 38.5875C23.5748 38.3164 23.333 37.8976 23.333 37.3309V22.6684C23.333 22.1017 23.5748 21.6824 24.0583 21.4104C24.5428 21.1393 25.0212 21.1573 25.4934 21.4642L37.0393 28.7955C37.4643 29.0788 37.6768 29.4802 37.6768 29.9996C37.6768 30.5191 37.4643 30.9205 37.0393 31.2038L25.4934 38.5351Z" fill="white"/>
</svg>
