<svg width="29" height="30" viewBox="0 0 29 30" fill="none" xmlns="http://www.w3.org/2000/svg">
<path d="M10.7238 26.375L20.904 15.875C21.0249 15.75 21.1103 15.6146 21.1602 15.4688C21.211 15.3229 21.2363 15.1667 21.2363 15C21.2363 14.8333 21.211 14.6771 21.1602 14.5312C21.1103 14.3854 21.0249 14.25 20.904 14.125L10.7238 3.59375C10.4419 3.30208 10.0895 3.15625 9.66654 3.15625C9.24362 3.15625 8.88112 3.3125 8.57904 3.625C8.27695 3.9375 8.12591 4.30208 8.12591 4.71875C8.12591 5.13542 8.27695 5.5 8.57904 5.8125L17.4603 15L8.57904 24.1875C8.29709 24.4792 8.15612 24.8383 8.15612 25.265C8.15612 25.6925 8.30716 26.0625 8.60925 26.375C8.91133 26.6875 9.26376 26.8438 9.66654 26.8438C10.0693 26.8438 10.4217 26.6875 10.7238 26.375Z" fill="black"/>
</svg>
