<svg width="201" height="77" viewBox="0 0 201 77" fill="none" xmlns="http://www.w3.org/2000/svg">
<path fill-rule="evenodd" clip-rule="evenodd" d="M0 6.68577V13.3715L0.110605 13.359C1.38684 13.2151 2.33292 13.0157 3.41431 12.6627C5.41532 12.0095 7.21018 10.9798 8.85799 9.53966C9.37779 9.08534 10.1301 8.30086 10.6092 7.7135C12.306 5.6333 13.4648 3.04788 13.8768 0.423185C13.9042 0.248621 13.9307 0.0820017 13.9357 0.0528981L13.9449 0H6.97242H0V6.68577ZM20.5925 0.0432802C20.5874 0.067094 20.5653 0.220729 20.5435 0.384713C20.5216 0.548698 20.4741 0.855987 20.4379 1.06758C19.6993 5.37433 17.7711 9.32681 14.8126 12.5985C14.5232 12.9186 13.7164 13.7304 13.3687 14.0514C10.0891 17.0796 5.97624 19.0914 1.59366 19.8112C1.11461 19.8899 0.685845 19.949 0.327005 19.9858C0.21592 19.9971 0.0969088 20.0109 0.0625157 20.0163L0 20.026V23.9397V27.8532L0.0721334 27.853C0.295343 27.8525 1.36529 27.7649 1.96203 27.6981C11.6763 26.6127 20.2976 20.7656 24.9764 12.0896C26.8639 8.58951 28.0667 4.58336 28.4096 0.654013C28.4313 0.405391 28.4535 0.15654 28.4591 0.100987L28.469 0H24.5355H20.6021L20.5925 0.0432802ZM34.0682 0.360669C33.5135 8.89486 29.8321 16.987 23.7269 23.0923C18.2316 28.5877 11.1342 32.1194 3.47203 33.1714C2.41545 33.3164 0.70206 33.4695 0.129841 33.4699L0 33.4701V37.8943C0 41.6011 0.00421259 42.3185 0.0260258 42.3185C0.218266 42.3185 1.56429 42.2359 2.07744 42.1925C8.91303 41.616 15.4432 39.5115 21.2841 36.0028C27.6088 32.2036 32.8927 26.9113 36.6859 20.5769C38.2498 17.9653 39.5551 15.1604 40.564 12.2435C41.7446 8.83054 42.521 5.15865 42.8274 1.53886C42.8695 1.04205 42.9339 0.132399 42.9339 0.0343934C42.9339 0.0014619 42.7465 0 38.5128 0H34.0917L34.0682 0.360669ZM50.9358 0.074115C50.9358 0.351551 50.854 1.69441 50.7905 2.46216C50.6862 3.72012 50.5869 4.54842 50.3255 6.33556L50.3146 6.40992L50.4377 6.39653C50.7163 6.36623 51.2386 6.28333 51.6053 6.21114C53.9303 5.75356 56.0936 4.73757 57.9658 3.22388C58.7926 2.55538 59.6825 1.64276 60.3377 0.79147C60.5319 0.539099 60.7789 0.196723 60.8706 0.0528981L60.9043 0H55.9201H50.9358V0.074115ZM68.6446 0.341433C66.9916 3.65819 64.3904 6.59418 61.2461 8.69232C58.8949 10.2612 56.2833 11.3561 53.5615 11.914C52.1609 12.201 50.581 12.3678 49.258 12.3684L48.9941 12.3685L48.9627 12.4791C48.2942 14.8265 47.3238 17.4601 46.3133 19.6684C46.1922 19.933 46.0948 20.1512 46.0967 20.1536C46.1048 20.1636 46.9216 20.2372 47.3195 20.264C50.1631 20.4547 53.0503 20.2231 55.8217 19.5818C63.0212 17.9158 69.3557 13.4945 73.4327 7.29032C74.8663 5.10842 76.0343 2.67045 76.7938 0.274108L76.8808 0H72.8478H68.8147L68.6446 0.341433ZM76.827 13.1718C75.7006 14.5966 74.2204 16.155 72.7607 17.4528C68.069 21.6239 62.2861 24.4467 56.1278 25.5718C52.4785 26.2385 48.6911 26.3142 45.0112 25.7941C44.5552 25.7297 43.6566 25.5811 43.3858 25.5254C43.2906 25.5059 43.2077 25.4957 43.2015 25.5029C43.1954 25.5101 43.088 25.6806 42.963 25.8816C42.6628 26.364 41.9173 27.4864 41.5437 28.0185C40.5474 29.4374 39.4282 30.8761 38.3204 32.162L38.1464 32.364L38.2848 32.4085C41.0029 33.2832 44.3227 33.947 47.3387 34.219C48.8795 34.3579 49.4872 34.383 51.3302 34.3834C52.9121 34.3838 53.1535 34.3773 54.2443 34.3061C61.0838 33.8597 67.7528 31.7907 73.605 28.2997C74.5329 27.7462 75.7559 26.9486 76.6009 26.3458L77 26.0611V19.513C77 15.9115 76.9978 12.9649 76.9952 12.9649C76.9925 12.9651 76.9169 13.058 76.827 13.1718ZM33.74 36.8492C33.2182 37.3309 32.1921 38.2078 31.4689 38.7901C29.8779 40.0714 28.0264 41.3897 26.405 42.3963C26.2649 42.4833 26.2377 42.508 26.2458 42.5409C26.2699 42.6391 26.3943 43.3484 26.4565 43.7419C26.9818 47.0651 27.0339 50.4692 26.611 53.8503C25.6519 61.5185 22.1484 68.7296 16.6965 74.2568C15.736 75.2305 14.8736 76.0239 13.9554 76.7784C13.8284 76.8828 13.7164 76.9753 13.7063 76.9842C13.6962 76.9931 16.4446 77.0001 19.8136 77L25.9392 76.9996L26.196 76.6721C27.5883 74.8967 28.8178 73.0663 29.9355 71.1047C30.6971 69.768 31.5056 68.1408 32.1287 66.69C34.9695 60.0766 36.161 52.8489 35.6037 45.6078C35.4377 43.449 35.1232 41.3572 34.641 39.2023C34.4473 38.337 34.0044 36.6424 33.9726 36.6449C33.9659 36.6454 33.8613 36.7374 33.74 36.8492ZM74.6245 38.3401C72.7295 39.2033 70.5703 40.0193 68.4402 40.677C67.961 40.825 66.7746 41.1683 66.6801 41.1864C66.6424 41.1936 66.6418 41.2064 66.6479 41.8282C66.6774 44.8065 66.1625 47.7715 65.1307 50.5639C63.4878 55.01 60.5556 58.9172 56.7243 61.7648C53.0062 64.5284 48.5736 66.1832 43.9725 66.5256C42.8429 66.6096 41.5504 66.6168 40.4813 66.545L40.3082 66.5333L40.2244 66.7608C40.0669 67.1882 39.6596 68.1995 39.4043 68.7963C38.575 70.7351 37.6676 72.5562 36.6255 74.373C36.529 74.5414 36.4568 74.6855 36.4652 74.6933C36.4871 74.7139 37.4794 74.9087 38.0191 74.9983C40.5851 75.4244 43.1726 75.5438 45.7422 75.3549C54.4045 74.718 62.4059 70.6123 68.0089 63.9297C71.6897 59.5395 74.1376 54.2113 75.0656 48.57C75.5096 45.8707 75.6088 43.1628 75.3646 40.4046C75.3053 39.7344 75.2324 39.1416 75.0987 38.2421C75.0918 38.1953 75.0774 38.1549 75.0668 38.1521C75.0563 38.1495 74.8572 38.234 74.6245 38.3401ZM43.3762 42.2398C43.3762 42.2495 43.3974 42.4767 43.4234 42.7448C43.5108 43.6468 43.5772 44.6234 43.6302 45.7808C43.6626 46.4914 43.6625 49.2508 43.63 49.955C43.4856 53.0779 43.1722 55.707 42.6168 58.4556C42.5796 58.6399 42.5491 58.7992 42.5491 58.8097C42.5491 58.8351 43.2826 58.8132 43.7225 58.7747C47.3396 58.4578 50.6076 57.0508 53.3485 54.6307C53.6835 54.335 54.3738 53.646 54.6701 53.3116C55.6609 52.1939 56.4459 51.0443 57.1003 49.7531C58.0412 47.8962 58.6153 45.9118 58.8114 43.8381C58.8445 43.4888 58.8799 42.9443 58.88 42.7823L58.8801 42.6787L58.7695 42.6917C56.1963 42.9945 52.9902 43.0998 50.2433 42.9717C48.1226 42.8727 45.9724 42.6459 43.9498 42.308C43.3977 42.2158 43.3762 42.2132 43.3762 42.2398ZM19.8415 45.8795C17.5594 46.8956 15.2144 47.731 12.5312 48.4839L12.4342 48.511L12.4109 49.0359C12.2152 53.4392 10.7654 57.601 8.18472 61.1678C6.88465 62.9647 5.24964 64.6281 3.47203 65.9623C2.48235 66.7051 1.29686 67.4467 0.254948 67.9747L0.000153885 68.1039L7.69423e-05 72.4168L0 76.7297L0.36586 76.6049C4.59595 75.1629 8.55324 72.6622 11.7531 69.4088C16.5892 64.4917 19.5307 58.0903 20.1002 51.2438C20.1788 50.299 20.1878 50.0441 20.1878 48.7623C20.1878 47.4801 20.1783 47.2123 20.1004 46.2906C20.0798 46.0473 20.063 45.8374 20.0628 45.8241C20.0626 45.7875 20.0295 45.7958 19.8415 45.8795ZM6.33812 49.7741C5.43448 49.9109 4.22501 50.0513 3.20809 50.1373C2.2573 50.2178 0.804201 50.3009 0.339854 50.3014C0.232289 50.3016 0.111797 50.3071 0.0721334 50.3137L0 50.3255V56.2495V62.1735L0.0606498 62.135C0.208283 62.0416 0.724604 61.658 1.01083 61.429C4.2129 58.8686 6.27303 55.1357 6.72206 51.0803C6.80507 50.3307 6.83404 49.7023 6.78535 49.7076C6.77214 49.709 6.57088 49.7389 6.33812 49.7741ZM76.6592 63.5139C73.6895 68.4486 69.6511 72.6484 64.8335 75.812C64.3602 76.1228 63.6561 76.5604 63.2128 76.8193L62.9192 76.9907L69.9532 76.9955C73.8218 76.9982 76.9901 76.9974 76.9936 76.994C76.9972 76.9904 76.9979 73.8321 76.9952 69.9755L76.9903 62.9635L76.6592 63.5139Z" fill="white"/>
<path d="M99.9258 34C97.8042 34 95.8321 33.7708 94.0093 33.3124C92.2164 32.8541 90.5729 32.1667 89.0788 31.2499C87.5847 30.3333 86.2251 29.1722 85 27.7667L88.1375 23.6875C89.9603 25.7653 91.813 27.2625 93.6955 28.1792C95.5781 29.0958 97.6996 29.5542 100.06 29.5542C101.524 29.5542 102.929 29.3708 104.274 29.0041C105.618 28.6069 106.709 28.0416 107.546 27.3084C108.382 26.5444 108.801 25.5972 108.801 24.4666C108.801 23.7639 108.577 23.168 108.128 22.6792C107.71 22.1903 107.127 21.7931 106.38 21.4874C105.663 21.1514 104.856 20.8764 103.96 20.6625C103.093 20.4487 102.227 20.2806 101.36 20.1583C100.494 20.0055 99.7166 19.8986 99.0294 19.8375C97.117 19.5319 95.3839 19.1347 93.83 18.6458C92.3061 18.1569 90.9912 17.5459 89.8856 16.8125C88.8099 16.0487 87.9881 15.1319 87.4204 14.0625C86.8526 12.993 86.5688 11.7708 86.5688 10.3958C86.5688 8.92916 86.8975 7.61527 87.5549 6.45416C88.2421 5.29306 89.1834 4.31528 90.3787 3.52083C91.6038 2.69583 93.0232 2.06945 94.6368 1.64166C96.2504 1.21389 97.9985 1 99.881 1C101.883 1 103.706 1.21389 105.349 1.64166C107.023 2.06945 108.502 2.7111 109.787 3.56666C111.102 4.39166 112.177 5.41527 113.014 6.63749L109.787 10.2125C108.98 9.1736 108.054 8.30277 107.008 7.59999C105.992 6.89722 104.871 6.3625 103.646 5.99583C102.421 5.62917 101.121 5.44584 99.7465 5.44584C98.2226 5.44584 96.863 5.62917 95.6677 5.99583C94.4725 6.3625 93.5162 6.88194 92.7991 7.55416C92.1118 8.19582 91.7681 8.99027 91.7681 9.9375C91.7681 10.7014 91.9773 11.3736 92.3957 11.9542C92.814 12.5347 93.4116 13.0236 94.1886 13.4208C94.9654 13.7875 95.9067 14.1084 97.0124 14.3833C98.118 14.6277 99.3581 14.8569 100.733 15.0709C102.496 15.3153 104.169 15.636 105.753 16.0334C107.366 16.4 108.786 16.9042 110.011 17.5459C111.266 18.1569 112.237 18.9667 112.924 19.975C113.641 20.9528 114 22.2055 114 23.7333C114 25.7806 113.417 27.5833 112.252 29.1417C111.087 30.7 109.458 31.9069 107.366 32.7624C105.275 33.5875 102.794 34 99.9258 34Z" fill="white"/>
<path d="M120 34V1H146V5.90286H125.078V29.0972H146V34H120ZM122.68 19.5272V14.6242H143.415V19.5272H122.68Z" fill="white"/>
<path d="M149 34L164.59 1H170.455L186 34H180.373L169.884 11.8428C169.629 11.3086 169.358 10.7428 169.072 10.1457C168.787 9.51714 168.501 8.87286 168.215 8.21286C167.929 7.55285 167.658 6.89285 167.404 6.23285C167.15 5.54143 166.911 4.86571 166.689 4.20571L168.119 4.15856C167.864 4.88143 167.594 5.58857 167.308 6.27999C167.054 6.97142 166.768 7.64714 166.451 8.30714C166.165 8.96714 165.878 9.61142 165.592 10.24C165.306 10.8371 165.036 11.4343 164.782 12.0314L154.387 34H149ZM155.818 26.1742L157.82 21.2714H176.702L177.799 26.1742H155.818Z" fill="white"/>
<path d="M87 77V44H91.8736L105.943 62.8099H104.104L118.218 44H123V77H118.034V63.0929C118.034 60.4528 118.096 57.9857 118.218 55.6913C118.372 53.3971 118.617 51.0714 118.954 48.7142L119.506 50.6L106.494 67.5243H103.46L90.5402 50.6472L91.0459 48.7142C91.4137 51.04 91.659 53.35 91.7816 55.6443C91.9042 57.9071 91.9655 60.39 91.9655 63.0929V77H87Z" fill="white"/>
<path d="M129 77L143.328 44H148.717L163 77H157.83L148.191 54.8428C147.957 54.3085 147.709 53.7428 147.446 53.1458C147.183 52.5171 146.92 51.8728 146.657 51.2128C146.394 50.5529 146.146 49.8928 145.912 49.2328C145.679 48.5414 145.46 47.8657 145.255 47.2056L146.57 47.1585C146.336 47.8814 146.088 48.5886 145.825 49.2799C145.591 49.9714 145.328 50.6471 145.036 51.3071C144.773 51.9671 144.51 52.6115 144.247 53.2399C143.985 53.8371 143.736 54.4343 143.502 55.0314L133.95 77H129ZM135.265 69.1743L137.105 64.2714H154.456L155.464 69.1743H135.265Z" fill="white"/>
<path d="M169 77V44H173.634L197.469 71.0129L197.116 71.4371C196.969 70.5257 196.851 69.5514 196.762 68.5143C196.674 67.4457 196.586 66.3457 196.498 65.2143C196.439 64.0829 196.381 62.9357 196.321 61.7728C196.292 60.5786 196.262 59.4 196.233 58.2371C196.233 57.0743 196.233 55.9428 196.233 54.8428V44H201V77H196.277L172.751 50.9771L172.884 50.3171C172.973 51.1656 173.046 52.0457 173.105 52.9571C173.164 53.8371 173.238 54.7328 173.326 55.6443C173.414 56.5557 173.488 57.4514 173.546 58.3314C173.634 59.2114 173.693 60.0757 173.723 60.9243C173.753 61.7728 173.767 62.5586 173.767 63.2814V77H169Z" fill="white"/>
<path d="M196.519 10C195.691 10 194.929 9.80264 194.231 9.4079C193.546 9.00001 193.002 8.45396 192.601 7.76974C192.2 7.08554 192 6.32896 192 5.5C192 4.86843 192.116 4.28949 192.35 3.76316C192.595 3.2237 192.919 2.74343 193.32 2.32238C193.733 1.90132 194.211 1.57896 194.754 1.35527C195.311 1.11842 195.899 1 196.519 1C197.127 1 197.696 1.11842 198.226 1.35527C198.769 1.59211 199.248 1.91449 199.662 2.32238C200.088 2.73026 200.418 3.20396 200.652 3.74343C200.884 4.2829 201 4.86843 201 5.5C201 6.13158 200.884 6.71712 200.652 7.25658C200.418 7.79606 200.088 8.27633 199.662 8.69738C199.248 9.10527 198.769 9.42764 198.226 9.66448C197.696 9.88817 197.127 10 196.519 10ZM196.519 8.9737C197.153 8.9737 197.735 8.82238 198.265 8.51975C198.795 8.20395 199.216 7.78291 199.527 7.25658C199.849 6.73027 200.011 6.14475 200.011 5.5C200.011 4.84211 199.849 4.25659 199.527 3.74343C199.216 3.21711 198.795 2.79607 198.265 2.48027C197.735 2.16448 197.153 2.00659 196.519 2.00659C195.86 2.00659 195.265 2.16448 194.735 2.48027C194.218 2.79607 193.797 3.21711 193.475 3.74343C193.151 4.25659 192.99 4.84211 192.99 5.5C192.99 6.14475 193.144 6.73027 193.455 7.25658C193.778 7.78291 194.205 8.20395 194.735 8.51975C195.265 8.82238 195.86 8.9737 196.519 8.9737ZM197.47 7.80921L196.616 5.83554L197.47 5.55921L198.46 7.80921H197.47ZM194.89 7.80921V3.0329H196.869C197.309 3.0329 197.67 3.17106 197.955 3.44738C198.252 3.72369 198.402 4.07896 198.402 4.51316C198.402 4.98686 198.239 5.35527 197.917 5.61842C197.606 5.88159 197.25 6.01316 196.85 6.01316H195.394L195.802 5.77633V7.80921H194.89ZM195.802 5.4408L195.433 5.24343H196.578C196.85 5.24343 197.069 5.18422 197.237 5.06579C197.419 4.93422 197.509 4.76974 197.509 4.57238C197.509 4.3487 197.425 4.17764 197.256 4.05922C197.088 3.94079 196.875 3.88158 196.616 3.88158H195.375L195.802 3.66448V5.4408Z" fill="white"/>
</svg>
