<svg width="170" height="131" viewBox="0 0 170 131" fill="none" xmlns="http://www.w3.org/2000/svg">
<rect width="170" height="131" fill="white"/>
<path d="M45.36 56L50.34 41.4H54.98L60.1 56H57.18L52.84 43.34L53.86 43.78H51.36L52.4 43.34L48.2 56H45.36ZM48.84 52.12L49.74 49.72H55.66L56.54 52.12H48.84ZM64.6113 56L59.9513 41.4H62.8913L66.7513 54.04L65.9113 53.64H68.0713L67.2113 54.04L70.7713 41.4H73.6113L69.2913 56H64.6113ZM75.9016 56V41.4H78.6816V56H75.9016ZM78.2816 56V53.6H84.9016V56H78.2816ZM78.2816 49.78V47.38H84.3816V49.78H78.2816ZM78.2816 43.8V41.4H84.7416V43.8H78.2816ZM92.6784 56.38C91.3851 56.38 90.2918 56.1733 89.3984 55.76C88.5184 55.3467 87.8451 54.78 87.3784 54.06C86.9118 53.3267 86.6784 52.5 86.6784 51.58H89.4584C89.4584 51.9667 89.5651 52.3467 89.7784 52.72C89.9918 53.08 90.3318 53.3733 90.7984 53.6C91.2784 53.8267 91.9051 53.94 92.6784 53.94C93.3718 53.94 93.9518 53.84 94.4184 53.64C94.8851 53.44 95.2318 53.18 95.4584 52.86C95.6851 52.5267 95.7984 52.1533 95.7984 51.74C95.7984 51.22 95.5784 50.8067 95.1384 50.5C94.6984 50.18 94.0184 49.98 93.0984 49.9L91.8184 49.8C90.4184 49.68 89.2984 49.2467 88.4584 48.5C87.6318 47.74 87.2184 46.74 87.2184 45.5C87.2184 44.5667 87.4384 43.7667 87.8784 43.1C88.3184 42.42 88.9318 41.9 89.7184 41.54C90.5184 41.1667 91.4518 40.98 92.5184 40.98C93.6251 40.98 94.5784 41.1733 95.3784 41.56C96.1784 41.9467 96.7984 42.4933 97.2384 43.2C97.6784 43.8933 97.8984 44.7133 97.8984 45.66H95.1184C95.1184 45.26 95.0184 44.8933 94.8184 44.56C94.6318 44.2133 94.3451 43.94 93.9584 43.74C93.5851 43.5267 93.1051 43.42 92.5184 43.42C91.9584 43.42 91.4918 43.5133 91.1184 43.7C90.7451 43.8867 90.4651 44.14 90.2784 44.46C90.0918 44.78 89.9984 45.1267 89.9984 45.5C89.9984 45.9533 90.1651 46.3533 90.4984 46.7C90.8318 47.0333 91.3584 47.2267 92.0784 47.28L93.3584 47.4C94.3984 47.48 95.3118 47.7 96.0984 48.06C96.8851 48.42 97.4918 48.9067 97.9184 49.52C98.3584 50.1333 98.5784 50.8733 98.5784 51.74C98.5784 52.66 98.3384 53.4733 97.8584 54.18C97.3784 54.8733 96.6918 55.4133 95.7984 55.8C94.9184 56.1867 93.8784 56.38 92.6784 56.38ZM103.664 56V43.5H106.504V56H103.664ZM99.4444 43.9V41.4H110.724V43.9H99.4444ZM110.321 56L115.301 41.4H119.941L125.061 56H122.141L117.801 43.34L118.821 43.78H116.321L117.361 43.34L113.161 56H110.321ZM113.801 52.12L114.701 49.72H120.621L121.501 52.12H113.801Z" fill="black"/>
<path d="M38.38 89.38C37.06 89.38 35.9267 89.1467 34.98 88.68C34.0333 88.2133 33.26 87.6067 32.66 86.86C32.0733 86.1133 31.64 85.3 31.36 84.42C31.08 83.54 30.94 82.6933 30.94 81.88V81.44C30.94 80.5333 31.08 79.64 31.36 78.76C31.6533 77.88 32.1 77.08 32.7 76.36C33.3 75.64 34.06 75.0667 34.98 74.64C35.9133 74.2 37.0133 73.98 38.28 73.98C39.6 73.98 40.7467 74.22 41.72 74.7C42.7067 75.1667 43.4933 75.8333 44.08 76.7C44.6667 77.5533 45.02 78.5533 45.14 79.7H42.28C42.1733 79.0333 41.9333 78.4733 41.56 78.02C41.2 77.5533 40.74 77.2067 40.18 76.98C39.62 76.74 38.9867 76.62 38.28 76.62C37.56 76.62 36.92 76.7467 36.36 77C35.8 77.24 35.3333 77.5867 34.96 78.04C34.5867 78.4933 34.3 79.0267 34.1 79.64C33.9133 80.2533 33.82 80.9333 33.82 81.68C33.82 82.4 33.9133 83.0667 34.1 83.68C34.3 84.2933 34.5933 84.8333 34.98 85.3C35.3667 85.7533 35.84 86.1067 36.4 86.36C36.9733 86.6133 37.6333 86.74 38.38 86.74C39.4733 86.74 40.3933 86.4733 41.14 85.94C41.9 85.3933 42.36 84.6333 42.52 83.66H45.38C45.2467 84.7 44.8933 85.6533 44.32 86.52C43.7467 87.3867 42.96 88.08 41.96 88.6C40.96 89.12 39.7667 89.38 38.38 89.38ZM54.6366 89.38C53.3166 89.38 52.1699 89.1467 51.1966 88.68C50.2366 88.2133 49.4366 87.6067 48.7966 86.86C48.1699 86.1 47.6966 85.2867 47.3766 84.42C47.0699 83.54 46.9166 82.6933 46.9166 81.88V81.44C46.9166 80.5467 47.0766 79.66 47.3966 78.78C47.7166 77.8867 48.1966 77.08 48.8366 76.36C49.4899 75.64 50.2966 75.0667 51.2566 74.64C52.2166 74.2 53.3432 73.98 54.6366 73.98C55.9166 73.98 57.0366 74.2 57.9966 74.64C58.9566 75.0667 59.7566 75.64 60.3966 76.36C61.0499 77.08 61.5366 77.8867 61.8566 78.78C62.1766 79.66 62.3366 80.5467 62.3366 81.44V81.88C62.3366 82.6933 62.1766 83.54 61.8566 84.42C61.5499 85.2867 61.0766 86.1 60.4366 86.86C59.8099 87.6067 59.0099 88.2133 58.0366 88.68C57.0766 89.1467 55.9432 89.38 54.6366 89.38ZM54.6366 86.74C55.3832 86.74 56.0499 86.6067 56.6366 86.34C57.2366 86.0733 57.7432 85.7067 58.1566 85.24C58.5832 84.76 58.9032 84.22 59.1166 83.62C59.3432 83.0067 59.4566 82.36 59.4566 81.68C59.4566 80.9467 59.3432 80.2733 59.1166 79.66C58.9032 79.0467 58.5832 78.5133 58.1566 78.06C57.7432 77.6067 57.2366 77.2533 56.6366 77C56.0366 76.7467 55.3699 76.62 54.6366 76.62C53.8899 76.62 53.2166 76.7467 52.6166 77C52.0166 77.2533 51.5032 77.6067 51.0766 78.06C50.6632 78.5133 50.3432 79.0467 50.1166 79.66C49.9032 80.2733 49.7966 80.9467 49.7966 81.68C49.7966 82.36 49.9032 83.0067 50.1166 83.62C50.3432 84.22 50.6632 84.76 51.0766 85.24C51.5032 85.7067 52.0166 86.0733 52.6166 86.34C53.2166 86.6067 53.8899 86.74 54.6366 86.74ZM65.0813 89V74.4H69.7413L75.8813 86.64H76.5413L76.1413 87V74.4H78.8213V89H74.1413L68.0013 76.76H67.3213L67.7213 76.4V89H65.0813ZM89.005 89.38C87.685 89.38 86.5517 89.1467 85.605 88.68C84.6583 88.2133 83.885 87.6067 83.285 86.86C82.6983 86.1133 82.265 85.3 81.985 84.42C81.705 83.54 81.565 82.6933 81.565 81.88V81.44C81.565 80.5333 81.705 79.64 81.985 78.76C82.2783 77.88 82.725 77.08 83.325 76.36C83.925 75.64 84.685 75.0667 85.605 74.64C86.5383 74.2 87.6383 73.98 88.905 73.98C90.225 73.98 91.3717 74.22 92.345 74.7C93.3317 75.1667 94.1183 75.8333 94.705 76.7C95.2917 77.5533 95.645 78.5533 95.765 79.7H92.905C92.7983 79.0333 92.5583 78.4733 92.185 78.02C91.825 77.5533 91.365 77.2067 90.805 76.98C90.245 76.74 89.6117 76.62 88.905 76.62C88.185 76.62 87.545 76.7467 86.985 77C86.425 77.24 85.9583 77.5867 85.585 78.04C85.2117 78.4933 84.925 79.0267 84.725 79.64C84.5383 80.2533 84.445 80.9333 84.445 81.68C84.445 82.4 84.5383 83.0667 84.725 83.68C84.925 84.2933 85.2183 84.8333 85.605 85.3C85.9917 85.7533 86.465 86.1067 87.025 86.36C87.5983 86.6133 88.2583 86.74 89.005 86.74C90.0983 86.74 91.0183 86.4733 91.765 85.94C92.525 85.3933 92.985 84.6333 93.145 83.66H96.005C95.8717 84.7 95.5183 85.6533 94.945 86.52C94.3717 87.3867 93.585 88.08 92.585 88.6C91.585 89.12 90.3917 89.38 89.005 89.38ZM98.4016 89V74.4H101.182V89H98.4016ZM100.782 89V86.6H107.402V89H100.782ZM100.782 82.78V80.38H106.882V82.78H100.782ZM100.782 76.8V74.4H107.242V76.8H100.782ZM110.316 89V74.3H113.156V89H110.316ZM119.236 89L114.756 82.64H117.936L122.556 89H119.236ZM112.316 84.12V81.82H116.036C116.556 81.82 117.002 81.7133 117.376 81.5C117.762 81.2867 118.062 80.9867 118.276 80.6C118.489 80.2133 118.596 79.7733 118.596 79.28C118.596 78.7733 118.489 78.3267 118.276 77.94C118.062 77.5533 117.762 77.2533 117.376 77.04C117.002 76.8267 116.556 76.72 116.036 76.72H112.316V74.3H115.736C116.909 74.3 117.922 74.4733 118.776 74.82C119.642 75.1667 120.309 75.6933 120.776 76.4C121.242 77.1067 121.476 77.9933 121.476 79.06V79.38C121.476 80.46 121.236 81.3467 120.756 82.04C120.289 82.7333 119.629 83.2533 118.776 83.6C117.922 83.9467 116.909 84.12 115.736 84.12H112.316ZM124.71 89V74.4H129.37L135.51 86.64H136.17L135.77 87V74.4H138.45V89H133.77L127.63 76.76H126.95L127.35 76.4V89H124.71Z" fill="black"/>
</svg>
