<svg width="182" height="182" viewBox="0 0 182 182" fill="none" xmlns="http://www.w3.org/2000/svg">
<path d="M92.2891 26.3873C90.7551 26.3873 89.434 26.0251 88.3261 25.3006C87.2181 24.5762 86.3659 23.5783 85.7693 22.307C85.1727 21.0357 84.8744 19.5833 84.8744 17.9498C84.8744 16.2879 85.1798 14.8212 85.7906 13.5499C86.4085 12.2715 87.2678 11.2737 88.3687 10.5563C89.4766 9.8319 90.7693 9.46968 92.2465 9.46968C93.3971 9.46968 94.434 9.68275 95.3573 10.1089C96.2806 10.535 97.037 11.1316 97.6265 11.8987C98.216 12.6657 98.5818 13.5606 98.7238 14.5833H96.2096C96.0178 13.8376 95.5917 13.1771 94.9312 12.6018C94.2778 12.0194 93.3971 11.7282 92.2891 11.7282C91.309 11.7282 90.4497 11.9839 89.711 12.4952C88.9795 12.9995 88.4078 13.7133 87.9958 14.6366C87.591 15.5528 87.3886 16.6288 87.3886 17.8646C87.3886 19.1288 87.5874 20.2296 87.9852 21.1671C88.39 22.1046 88.9582 22.8326 89.6897 23.3511C90.4284 23.8695 91.2948 24.1288 92.2891 24.1288C92.9426 24.1288 93.5356 24.0151 94.0683 23.7879C94.6009 23.5606 95.0519 23.2339 95.4213 22.8078C95.7906 22.3816 96.0534 21.8703 96.2096 21.2737H98.7238C98.5818 22.2396 98.2302 23.1096 97.6691 23.8837C97.1151 24.6508 96.3801 25.2616 95.4639 25.7161C94.5548 26.1636 93.4965 26.3873 92.2891 26.3873Z" fill="white"/>
<path d="M121.377 29.6079L132.142 20.4139L134.292 21.4493L120.819 33.1232L118.976 32.2357L119.818 14.4788L121.93 15.4957L121.377 29.6079ZM121.2 15.1444L114.1 29.8875L111.835 28.7967L118.935 14.0535L121.2 15.1444ZM125.695 35.4713L132.795 20.7282L135.06 21.8191L127.96 36.5622L125.695 35.4713Z" fill="white"/>
<path d="M141.832 50.7256C140.911 49.5706 140.378 48.338 140.233 47.0278C140.091 45.7232 140.32 44.4325 140.919 43.1556C141.522 41.8843 142.484 40.7217 143.806 39.6678C145.139 38.605 146.495 37.9188 147.874 37.6093C149.257 37.3053 150.57 37.3672 151.81 37.795C153.055 38.2284 154.138 39.0226 155.059 40.1776C155.98 41.3326 156.511 42.5624 156.652 43.867C156.798 45.1772 156.566 46.4701 155.958 47.7459C155.353 49.0272 154.385 50.1992 153.052 51.262C151.731 52.3159 150.381 52.9926 149.003 53.2922C147.629 53.5973 146.32 53.5332 145.075 53.0998C143.834 52.6719 142.753 51.8805 141.832 50.7256ZM143.598 49.3174C144.298 50.1947 145.098 50.7373 146 50.945C146.901 51.1527 147.827 51.1003 148.777 50.7878C149.727 50.4754 150.629 49.9782 151.485 49.2963C152.34 48.6143 153.028 47.8429 153.55 46.9818C154.071 46.1208 154.334 45.2255 154.337 44.296C154.341 43.3665 153.993 42.4631 153.293 41.5858C152.594 40.7084 151.79 40.1681 150.883 39.9648C149.976 39.7616 149.045 39.8184 148.09 40.1352C147.134 40.4521 146.229 40.9515 145.374 41.6334C144.518 42.3154 143.833 43.0847 143.317 43.9413C142.801 44.7979 142.544 45.6887 142.546 46.6138C142.548 47.5389 142.898 48.4401 143.598 49.3174Z" fill="white"/>
<path d="M166.938 67.4133L169.223 66.8918L172.182 79.8539L169.897 80.3754L168.702 75.1407L155.033 78.2604L154.474 75.8093L168.142 72.6895L166.938 67.4133Z" fill="white"/>
<path d="M150.086 97.9033L172.022 102.91L171.482 105.278L168.947 104.7L168.881 104.99C169.117 105.234 169.413 105.564 169.77 105.98C170.132 106.405 170.414 106.958 170.615 107.637C170.822 108.326 170.808 109.189 170.57 110.228C170.264 111.571 169.658 112.679 168.752 113.55C167.847 114.422 166.712 115.004 165.348 115.297C163.985 115.591 162.465 115.546 160.789 115.164C159.1 114.778 157.701 114.157 156.593 113.299C155.491 112.443 154.718 111.429 154.271 110.256C153.832 109.085 153.764 107.834 154.068 106.505C154.301 105.48 154.658 104.698 155.138 104.159C155.625 103.622 156.125 103.237 156.637 103.004C157.156 102.773 157.581 102.601 157.913 102.487L157.96 102.279L149.527 100.354L150.086 97.9033ZM163.495 103.499C162.291 103.224 161.187 103.158 160.186 103.301C159.191 103.445 158.357 103.798 157.683 104.358C157.016 104.919 156.57 105.692 156.345 106.675C156.111 107.7 156.186 108.617 156.57 109.425C156.959 110.243 157.574 110.93 158.416 111.486C159.263 112.051 160.255 112.463 161.39 112.722C162.512 112.978 163.563 113.036 164.542 112.895C165.526 112.763 166.361 112.41 167.045 111.838C167.735 111.274 168.198 110.473 168.435 109.434C168.662 108.437 168.601 107.542 168.25 106.748C167.907 105.956 167.324 105.284 166.503 104.732C165.689 104.182 164.686 103.771 163.495 103.499Z" fill="white"/>
<path d="M141.564 131.674C142.547 130.442 143.667 129.595 144.924 129.135C146.182 128.685 147.496 128.611 148.864 128.911C150.233 129.222 151.573 129.9 152.883 130.945C154.194 131.99 155.158 133.15 155.777 134.424C156.397 135.709 156.644 137.005 156.518 138.313C156.394 139.631 155.871 140.867 154.95 142.022C154.419 142.689 153.783 143.258 153.043 143.731C152.303 144.203 151.47 144.507 150.545 144.641C149.626 144.78 148.632 144.683 147.563 144.348C146.495 144.014 145.363 143.37 144.169 142.418L143.336 141.754L151.201 131.892L152.9 133.247L146.63 141.11C147.352 141.686 148.111 142.055 148.908 142.218C149.7 142.387 150.47 142.338 151.218 142.071C151.962 141.811 152.618 141.325 153.184 140.614C153.809 139.831 154.155 138.999 154.222 138.117C154.291 137.245 154.138 136.411 153.766 135.614C153.393 134.817 152.854 134.137 152.149 133.575L151.016 132.671C150.05 131.901 149.098 131.414 148.16 131.212C147.224 131.019 146.341 131.083 145.513 131.404C144.691 131.729 143.963 132.289 143.33 133.083C142.918 133.599 142.618 134.123 142.43 134.655C142.244 135.196 142.176 135.737 142.227 136.277C142.283 136.822 142.467 137.354 142.778 137.875L140.731 139.349C140.246 138.635 139.947 137.848 139.835 136.986C139.728 136.129 139.816 135.245 140.097 134.334C140.384 133.427 140.873 132.541 141.564 131.674Z" fill="white"/>
<path d="M131.152 159.526L132.169 161.638L120.19 167.406L119.173 165.295L124.011 162.965L117.928 150.334L120.193 149.243L126.276 161.874L131.152 159.526Z" fill="white"/>
<path d="M94.696 166.394H90.0085C88.0909 166.394 86.6243 165.907 85.6087 164.934C84.593 163.961 84.0852 162.729 84.0852 161.238C84.0852 160.258 84.3125 159.366 84.767 158.564C85.2216 157.768 85.8892 157.133 86.7699 156.657C87.6506 156.188 88.7301 155.954 90.0085 155.954H96.8693V172.317H94.3551V158.297H90.0085C89.0142 158.297 88.1974 158.56 87.5582 159.086C86.919 159.611 86.5994 160.286 86.5994 161.11C86.5994 161.976 86.919 162.683 87.5582 163.23C88.1974 163.777 89.0142 164.05 90.0085 164.05H94.696V166.394Z" fill="white"/>
<path d="M44.0173 135.98L31.2237 146.183L27.0524 140.952C25.9542 139.575 25.3928 138.233 25.3682 136.927C25.3436 135.62 25.8421 134.559 26.8638 133.744C27.6412 133.124 28.4275 132.874 29.2226 132.994C30.0121 133.119 30.7697 133.482 31.4953 134.084C31.1855 133.559 30.9868 132.968 30.8991 132.311C30.8069 131.649 30.8767 130.985 31.1084 130.319C31.3346 129.657 31.7837 129.058 32.4556 128.522C33.1108 128 33.8294 127.699 34.6115 127.62C35.3936 127.542 36.1826 127.694 36.9784 128.076C37.7742 128.459 38.5175 129.084 39.2083 129.95L44.0173 135.98ZM40.7304 135.549L37.4092 131.385C36.869 130.707 36.2851 130.305 35.6574 130.179C35.0298 130.053 34.4384 130.211 33.8831 130.654C33.2223 131.181 32.8559 131.786 32.7839 132.471C32.7063 133.159 32.9376 133.842 33.4778 134.52L36.799 138.684L40.7304 135.549ZM35.0998 140.04L32.4164 136.675C31.9957 136.147 31.5626 135.752 31.1171 135.49C30.6661 135.232 30.2248 135.111 29.7933 135.128C29.3518 135.144 28.9423 135.303 28.5647 135.604C28.0261 136.033 27.7834 136.595 27.8367 137.288C27.8844 137.986 28.2227 138.729 28.8515 139.517L31.535 142.882L35.0998 140.04Z" fill="white"/>
<path d="M25.2413 110.349L11.1481 105.479L10.5033 102.654L26.4567 99.013L27.0161 101.464L14.6772 104.28L28.7609 109.109L29.4152 111.975L13.4618 115.616L12.9024 113.165L25.2413 110.349Z" fill="white"/>
<path d="M30.647 85.7566L23.7921 84.192L24.0955 82.8625C23.8305 82.4596 23.5275 82.0954 23.1866 81.7699C22.8456 81.4444 22.4249 81.1335 21.9243 80.8371C21.4184 80.5322 20.7884 80.2282 20.0344 79.925C19.2735 79.6202 18.3467 79.2921 17.254 78.9407L11.0624 76.9593L13.3762 66.8222L27.0445 69.9419L27.604 67.4908L34.459 69.0554L33.8995 71.5065L29.3295 70.4635L26.6365 82.2623L31.2065 83.3054L30.647 85.7566ZM24.7308 80.079L26.4851 72.3931L15.1017 69.7949L13.869 75.1958L17.804 76.5311C19.4333 77.085 20.8418 77.6324 22.0297 78.173C23.2176 78.7137 24.1179 79.349 24.7308 80.079Z" fill="white"/>
<path d="M41.02 50.3896C40.037 51.6223 38.9169 52.4687 37.6598 52.9287C36.4015 53.3788 35.0884 53.4534 33.7203 53.1527C32.351 52.8421 31.0112 52.1642 29.7007 51.1191C28.3903 50.0741 27.4257 48.9142 26.807 47.6396C26.1872 46.355 25.9401 45.0588 26.0657 43.7508C26.1901 42.4329 26.7128 41.1965 27.6339 40.0415C28.1653 39.3752 28.8011 38.8057 29.5413 38.3332C30.2815 37.8606 31.114 37.5571 32.0389 37.4226C32.9582 37.2836 33.9522 37.3814 35.0208 37.7158C36.0895 38.0502 37.2207 38.6935 38.4146 39.6455L39.2475 40.3098L31.383 50.1715L29.6839 48.8165L35.9542 40.9537C35.2323 40.3781 34.4731 40.0088 33.6764 39.8459C32.8842 39.6774 32.114 39.7263 31.3657 39.9925C30.6218 40.2532 29.9665 40.7389 29.3997 41.4497C28.7753 42.2326 28.4294 43.0651 28.362 43.947C28.2934 44.8189 28.4456 45.6533 28.8184 46.4503C29.1912 47.2472 29.7302 47.9268 30.4354 48.4892L31.5682 49.3926C32.5344 50.1631 33.4862 50.6497 34.4238 50.8523C35.3603 51.045 36.2425 50.9809 37.0706 50.6602C37.8931 50.3351 38.621 49.7755 39.2542 48.9814C39.666 48.465 39.9658 47.941 40.1536 47.4094C40.3402 46.8678 40.4081 46.327 40.3574 45.7869C40.3011 45.2424 40.1172 44.7097 39.8059 44.1889L41.8534 42.7149C42.3381 43.4285 42.6366 44.2161 42.7488 45.0778C42.8555 45.935 42.7681 46.8192 42.4867 47.7303C42.1997 48.6369 41.7108 49.5233 41.02 50.3896Z" fill="white"/>
<path d="M63.2425 32.7898C61.9115 33.4308 60.5912 33.6764 59.2815 33.5267C57.9781 33.374 56.7707 32.8637 55.6591 31.9958C54.5538 31.1249 53.6345 29.928 52.9011 28.4051C52.1615 26.8693 51.7943 25.3947 51.7994 23.9812C51.8109 22.5646 52.1632 21.2992 52.8564 20.185C53.556 19.0677 54.5712 18.1886 55.9022 17.5476C57.2332 16.9066 58.5503 16.6625 59.8536 16.8153C61.1633 16.965 62.3723 17.4785 63.4806 18.3558C64.5953 19.23 65.5225 20.435 66.2621 21.9708C66.9955 23.4937 67.3549 24.9603 67.3403 26.3705C67.3321 27.7776 66.9782 29.0398 66.2787 30.1571C65.5855 31.2713 64.5735 32.1489 63.2425 32.7898ZM62.2625 30.755C63.2736 30.2681 63.9806 29.6083 64.3837 28.7757C64.7868 27.9431 64.9417 27.0289 64.8485 26.0333C64.7553 25.0376 64.4714 24.0471 63.9968 23.0616C63.5223 22.0762 62.9233 21.2334 62.1999 20.5334C61.4765 19.8333 60.6621 19.3781 59.7567 19.1677C58.8514 18.9573 57.8932 19.0956 56.8821 19.5824C55.8711 20.0693 55.1656 20.7323 54.7656 21.5713C54.3656 22.4104 54.2137 23.3309 54.31 24.333C54.4063 25.335 54.6918 26.3288 55.1663 27.3142C55.6409 28.2996 56.2383 29.1392 56.9586 29.8328C57.6789 30.5265 58.4903 30.9753 59.3925 31.1793C60.2948 31.3833 61.2515 31.2419 62.2625 30.755Z" fill="white"/>
</svg>
