<svg width="228" height="31" viewBox="0 0 228 31" fill="none" xmlns="http://www.w3.org/2000/svg">
<path d="M22.04 18.544C22.04 20.3147 21.816 21.9253 21.368 23.376C20.92 24.8053 20.248 26.0427 19.352 27.088C18.4773 28.1333 17.3787 28.9333 16.056 29.488C14.7547 30.0427 13.24 30.32 11.512 30.32C9.72 30.32 8.16267 30.0427 6.84 29.488C5.51733 28.912 4.41867 28.112 3.544 27.088C2.66933 26.0427 2.01867 24.7947 1.592 23.344C1.16533 21.8933 0.952 20.2827 0.952 18.512C0.952 16.1653 1.336 14.1173 2.104 12.368C2.872 10.6187 4.03467 9.25333 5.592 8.272C7.17067 7.29067 9.15467 6.8 11.544 6.8C13.8267 6.8 15.7467 7.29067 17.304 8.272C18.8613 9.232 20.0347 10.5973 20.824 12.368C21.6347 14.1173 22.04 16.176 22.04 18.544ZM3.992 18.544C3.992 20.464 4.25867 22.1173 4.792 23.504C5.32533 24.8907 6.14667 25.9573 7.256 26.704C8.38667 27.4507 9.80533 27.824 11.512 27.824C13.24 27.824 14.648 27.4507 15.736 26.704C16.8453 25.9573 17.6667 24.8907 18.2 23.504C18.7333 22.1173 19 20.464 19 18.544C19 15.664 18.4027 13.4133 17.208 11.792C16.0133 10.1493 14.1253 9.328 11.544 9.328C9.816 9.328 8.38667 9.70133 7.256 10.448C6.14667 11.1733 5.32533 12.2293 4.792 13.616C4.25867 14.9813 3.992 16.624 3.992 18.544ZM43.776 30H40.32L29.984 18.416V30H27.104V7.152H29.984V18.224L40.064 7.152H43.328L33.408 18.256L43.776 30ZM54.1173 30H51.2373V9.68H44.1013V7.152H61.2213V9.68H54.1173V30ZM71.5465 20.528L65.6265 30H62.2665L68.6665 20.016C67.8558 19.7387 67.0878 19.3547 66.3625 18.864C65.6585 18.3733 65.0825 17.7013 64.6345 16.848C64.1865 15.9947 63.9625 14.896 63.9625 13.552C63.9625 11.4827 64.6772 9.904 66.1065 8.816C67.5358 7.70667 69.6692 7.152 72.5065 7.152H78.9065V30H76.0265V20.528H71.5465ZM72.5705 9.616C71.3545 9.616 70.3305 9.75467 69.4985 10.032C68.6665 10.3093 68.0265 10.7467 67.5785 11.344C67.1518 11.9413 66.9385 12.72 66.9385 13.68C66.9385 15.088 67.4078 16.176 68.3465 16.944C69.2852 17.712 70.7358 18.096 72.6985 18.096H76.0265V9.616H72.5705ZM85.104 30V7.152H98.672V9.68H87.984V16.816H91.376C93.6587 16.816 95.4293 17.104 96.688 17.68C97.9467 18.2347 98.8213 19.0027 99.312 19.984C99.8027 20.944 100.048 22.0533 100.048 23.312C100.048 24.6987 99.7707 25.8933 99.216 26.896C98.6827 27.8987 97.808 28.6667 96.592 29.2C95.376 29.7333 93.776 30 91.792 30H85.104ZM91.504 27.536C93.552 27.536 94.992 27.1947 95.824 26.512C96.656 25.808 97.072 24.7413 97.072 23.312C97.072 22.3307 96.8693 21.552 96.464 20.976C96.08 20.3787 95.44 19.952 94.544 19.696C93.6693 19.44 92.496 19.312 91.024 19.312H87.984V27.536H91.504ZM110.84 7.152C113.826 7.152 116.002 7.73867 117.368 8.912C118.733 10.0853 119.416 11.7387 119.416 13.872C119.416 14.8107 119.256 15.7173 118.936 16.592C118.637 17.4453 118.136 18.2133 117.432 18.896C116.728 19.5787 115.789 20.1227 114.616 20.528C113.442 20.912 112.002 21.104 110.296 21.104H107.672V30H104.792V7.152H110.84ZM110.584 9.616H107.672V18.64H109.976C111.426 18.64 112.632 18.4907 113.592 18.192C114.552 17.872 115.266 17.3707 115.736 16.688C116.205 16.0053 116.44 15.1093 116.44 14C116.44 12.528 115.97 11.4293 115.032 10.704C114.093 9.97867 112.61 9.616 110.584 9.616ZM124.167 30V7.152H127.047V16.816H131.335C133.468 16.816 135.164 17.104 136.423 17.68C137.681 18.256 138.588 19.0347 139.142 20.016C139.697 20.9973 139.975 22.096 139.975 23.312C139.975 24.656 139.665 25.8293 139.047 26.832C138.449 27.8347 137.543 28.6133 136.327 29.168C135.111 29.7227 133.564 30 131.687 30H124.167ZM131.399 27.536C133.255 27.536 134.652 27.1947 135.591 26.512C136.529 25.808 136.999 24.7413 136.999 23.312C136.999 22.3307 136.764 21.552 136.295 20.976C135.847 20.3787 135.175 19.952 134.279 19.696C133.404 19.44 132.305 19.312 130.983 19.312H127.047V27.536H131.399ZM154.49 9.36C153.274 9.36 152.175 9.57333 151.194 10C150.212 10.4053 149.38 11.0133 148.698 11.824C148.015 12.6133 147.492 13.584 147.13 14.736C146.767 15.8667 146.586 17.1467 146.586 18.576C146.586 20.4533 146.874 22.0853 147.45 23.472C148.047 24.8587 148.922 25.9253 150.074 26.672C151.247 27.4187 152.708 27.792 154.458 27.792C155.46 27.792 156.41 27.7067 157.306 27.536C158.202 27.3653 159.076 27.152 159.93 26.896V29.392C159.076 29.712 158.191 29.9467 157.274 30.096C156.378 30.2453 155.3 30.32 154.042 30.32C151.716 30.32 149.775 29.84 148.218 28.88C146.66 27.92 145.487 26.5547 144.698 24.784C143.93 23.0133 143.546 20.9333 143.546 18.544C143.546 16.816 143.78 15.2373 144.25 13.808C144.74 12.3787 145.444 11.1413 146.362 10.096C147.3 9.05067 148.452 8.25067 149.818 7.696C151.183 7.12 152.751 6.832 154.522 6.832C155.695 6.832 156.826 6.94933 157.914 7.184C159.002 7.41867 159.972 7.74933 160.826 8.176L159.674 10.608C158.97 10.288 158.18 10 157.306 9.744C156.452 9.488 155.514 9.36 154.49 9.36ZM181.589 30H178.133L167.797 18.416V30H164.917V7.152H167.797V18.224L177.877 7.152H181.141L171.22 18.256L181.589 30ZM184.73 7.152H187.418V19.696C187.418 20.2293 187.407 20.816 187.386 21.456C187.386 22.0747 187.375 22.6933 187.354 23.312C187.332 23.9307 187.3 24.4853 187.258 24.976C187.236 25.4453 187.215 25.808 187.194 26.064H187.322L199.898 7.152H203.098V30H200.41V17.584C200.41 17.008 200.42 16.3893 200.442 15.728C200.463 15.0453 200.484 14.3947 200.506 13.776C200.548 13.136 200.58 12.5707 200.602 12.08C200.623 11.5893 200.644 11.2267 200.666 10.992H200.538L187.93 30H184.73V7.152ZM224.844 0.0479984C224.759 1.11467 224.492 2.01067 224.044 2.736C223.618 3.46133 222.978 4.00533 222.124 4.368C221.271 4.73067 220.162 4.912 218.796 4.912C217.41 4.912 216.29 4.73067 215.436 4.368C214.604 4.00533 213.996 3.472 213.612 2.768C213.228 2.04267 212.994 1.136 212.908 0.0479984H215.532C215.639 1.2 215.938 1.97867 216.428 2.384C216.94 2.768 217.751 2.96 218.86 2.96C219.842 2.96 220.61 2.75733 221.164 2.352C221.74 1.92533 222.082 1.15733 222.188 0.0479984H224.844ZM209.292 7.152H211.98V19.696C211.98 20.2293 211.97 20.816 211.948 21.456C211.948 22.0747 211.938 22.6933 211.916 23.312C211.895 23.9307 211.863 24.4853 211.82 24.976C211.799 25.4453 211.778 25.808 211.756 26.064H211.884L224.46 7.152H227.66V30H224.972V17.584C224.972 17.008 224.983 16.3893 225.004 15.728C225.026 15.0453 225.047 14.3947 225.068 13.776C225.111 13.136 225.143 12.5707 225.164 12.08C225.186 11.5893 225.207 11.2267 225.228 10.992H225.1L212.492 30H209.292V7.152Z" fill="white"/>
</svg>
