<svg width="26" height="26" viewBox="0 0 26 26" fill="none" xmlns="http://www.w3.org/2000/svg">
<path d="M9.61455 22.8583L18.7416 13.7583C18.85 13.6499 18.9265 13.5326 18.9713 13.4062C19.0168 13.2798 19.0396 13.1444 19.0396 12.9999C19.0396 12.8555 19.0168 12.7201 18.9713 12.5937C18.9265 12.4673 18.85 12.3499 18.7416 12.2416L9.61455 3.11452C9.36177 2.86174 9.0458 2.73535 8.66663 2.73535C8.28747 2.73535 7.96247 2.87077 7.69163 3.1416C7.4208 3.41243 7.28538 3.72841 7.28538 4.08952C7.28538 4.45063 7.4208 4.7666 7.69163 5.03744L15.6541 12.9999L7.69163 20.9624C7.43886 21.2152 7.31247 21.5265 7.31247 21.8963C7.31247 22.2668 7.44788 22.5874 7.71872 22.8583C7.98955 23.1291 8.30552 23.2645 8.66663 23.2645C9.02775 23.2645 9.34372 23.1291 9.61455 22.8583Z" fill="black"/>
</svg>
