<svg width="26" height="26" viewBox="0 0 26 26" fill="none" xmlns="http://www.w3.org/2000/svg">
<path d="M16.3854 22.8583L7.25837 13.7583C7.15003 13.6499 7.07348 13.5326 7.0287 13.4062C6.9832 13.2798 6.96045 13.1444 6.96045 12.9999C6.96045 12.8555 6.9832 12.7201 7.0287 12.5937C7.07348 12.4673 7.15003 12.3499 7.25837 12.2416L16.3854 3.11452C16.6382 2.86174 16.9542 2.73535 17.3334 2.73535C17.7125 2.73535 18.0375 2.87077 18.3084 3.1416C18.5792 3.41243 18.7146 3.72841 18.7146 4.08952C18.7146 4.45063 18.5792 4.7666 18.3084 5.03744L10.3459 12.9999L18.3084 20.9624C18.5611 21.2152 18.6875 21.5265 18.6875 21.8963C18.6875 22.2668 18.5521 22.5874 18.2813 22.8583C18.0104 23.1291 17.6945 23.2645 17.3334 23.2645C16.9723 23.2645 16.6563 23.1291 16.3854 22.8583Z" fill="black"/>
</svg>
