<svg width="54" height="27" viewBox="0 0 54 27" fill="none" xmlns="http://www.w3.org/2000/svg">
<rect x="0.5" y="0.5" width="53" height="26" rx="1.5" stroke="black"/>
<rect x="2.59424" y="2.59412" width="21.8118" height="21.8118" rx="1.75" stroke="black" stroke-width="0.5"/>
<circle cx="13.3654" cy="7.98928" r="2.15054" fill="black"/>
<rect x="26.25" y="2.25" width="11.5" height="22.5" rx="1.75" stroke="black" stroke-width="0.5"/>
<circle cx="32.1505" cy="7.98928" r="2.15054" fill="black"/>
<line x1="40.25" y1="3.97583" x2="49.9651" y2="3.97583" stroke="black" stroke-width="0.5" stroke-linecap="round"/>
<line x1="40.25" y1="5.58875" x2="49.9651" y2="5.58875" stroke="black" stroke-width="0.5" stroke-linecap="round"/>
<line x1="40.25" y1="7.20166" x2="49.9651" y2="7.20166" stroke="black" stroke-width="0.5" stroke-linecap="round"/>
<line x1="40.25" y1="8.81458" x2="49.9651" y2="8.81458" stroke="black" stroke-width="0.5" stroke-linecap="round"/>
<line x1="40.25" y1="10.4274" x2="49.9651" y2="10.4274" stroke="black" stroke-width="0.5" stroke-linecap="round"/>
<line x1="40.25" y1="12.0404" x2="49.9651" y2="12.0404" stroke="black" stroke-width="0.5" stroke-linecap="round"/>
<line x1="40.25" y1="13.6533" x2="49.9651" y2="13.6533" stroke="black" stroke-width="0.5" stroke-linecap="round"/>
<line x1="40.25" y1="15.2661" x2="49.9651" y2="15.2661" stroke="black" stroke-width="0.5" stroke-linecap="round"/>
<line x1="40.25" y1="16.8789" x2="49.9651" y2="16.8789" stroke="black" stroke-width="0.5" stroke-linecap="round"/>
<line x1="40.25" y1="18.4918" x2="49.9651" y2="18.4918" stroke="black" stroke-width="0.5" stroke-linecap="round"/>
<line x1="40.25" y1="20.1049" x2="49.9651" y2="20.1049" stroke="black" stroke-width="0.5" stroke-linecap="round"/>
<line x1="40.25" y1="21.7178" x2="49.9651" y2="21.7178" stroke="black" stroke-width="0.5" stroke-linecap="round"/>
<line x1="40.25" y1="23.3306" x2="49.9651" y2="23.3306" stroke="black" stroke-width="0.5" stroke-linecap="round"/>
</svg>
