<svg width="41" height="27" viewBox="0 0 41 27" fill="none" xmlns="http://www.w3.org/2000/svg">
<rect x="0.5" y="0.5" width="39.172" height="26" rx="2.5" stroke="black"/>
<rect x="2.59375" y="2.59412" width="21.8118" height="21.8118" rx="1.75" stroke="black" stroke-width="0.5"/>
<circle cx="13.3654" cy="7.98928" r="2.15054" fill="black"/>
<line x1="26.7876" y1="3.97583" x2="36.5027" y2="3.97583" stroke="black" stroke-width="0.5" stroke-linecap="round"/>
<line x1="26.7876" y1="5.58875" x2="36.5027" y2="5.58875" stroke="black" stroke-width="0.5" stroke-linecap="round"/>
<line x1="26.7876" y1="7.20154" x2="36.5027" y2="7.20154" stroke="black" stroke-width="0.5" stroke-linecap="round"/>
<line x1="26.7876" y1="8.81458" x2="36.5027" y2="8.81458" stroke="black" stroke-width="0.5" stroke-linecap="round"/>
<line x1="26.7876" y1="10.4274" x2="36.5027" y2="10.4274" stroke="black" stroke-width="0.5" stroke-linecap="round"/>
<line x1="26.7876" y1="12.0403" x2="36.5027" y2="12.0403" stroke="black" stroke-width="0.5" stroke-linecap="round"/>
<line x1="26.7876" y1="13.6532" x2="36.5027" y2="13.6532" stroke="black" stroke-width="0.5" stroke-linecap="round"/>
<line x1="26.7876" y1="15.2661" x2="36.5027" y2="15.2661" stroke="black" stroke-width="0.5" stroke-linecap="round"/>
<line x1="26.7876" y1="16.8792" x2="36.5027" y2="16.8792" stroke="black" stroke-width="0.5" stroke-linecap="round"/>
<line x1="26.7876" y1="18.4919" x2="36.5027" y2="18.4919" stroke="black" stroke-width="0.5" stroke-linecap="round"/>
<line x1="26.7876" y1="20.1049" x2="36.5027" y2="20.1049" stroke="black" stroke-width="0.5" stroke-linecap="round"/>
<line x1="26.7876" y1="21.7178" x2="36.5027" y2="21.7178" stroke="black" stroke-width="0.5" stroke-linecap="round"/>
<line x1="26.7876" y1="23.3307" x2="36.5027" y2="23.3307" stroke="black" stroke-width="0.5" stroke-linecap="round"/>
</svg>
