<svg width="54" height="27" viewBox="0 0 54 27" fill="none" xmlns="http://www.w3.org/2000/svg">
<circle cx="21.9679" cy="9.33328" r="2.15054" fill="black"/>
<circle cx="35.9464" cy="9.33328" r="2.15054" fill="black"/>
<path d="M0.510782 11.5252C0.484304 11.6714 0.511876 11.8048 0.537526 11.8936C0.565452 11.9903 0.607125 12.087 0.653124 12.1788C0.745275 12.3626 0.879316 12.5746 1.04001 12.8037C1.3632 13.2644 1.83064 13.8459 2.39119 14.5003C3.51463 15.8118 5.04299 17.4522 6.61957 19.0744C8.19693 20.6974 9.82831 22.3082 11.1599 23.5613C11.8254 24.1876 12.4191 24.7274 12.8953 25.1357C13.3521 25.5274 13.7482 25.8404 13.9983 25.966C14.1676 26.0509 14.4107 26.1023 14.6496 26.1409C14.9089 26.1829 15.2344 26.2197 15.6118 26.2523C16.3678 26.3177 17.3603 26.3686 18.5057 26.4069C20.7981 26.4835 23.7265 26.51 26.6516 26.4967C29.577 26.4834 32.504 26.4303 34.7943 26.3471C35.939 26.3056 36.9284 26.2564 37.6806 26.2006C38.0563 26.1727 38.3776 26.1428 38.6316 26.1108C38.8698 26.0807 39.0936 26.0439 39.2446 25.9898C39.4019 25.9334 39.5808 25.824 39.7538 25.7059C39.9375 25.5804 40.1535 25.4175 40.3943 25.2254C40.8765 24.8407 41.4771 24.3234 42.1499 23.7182C43.4965 22.5068 45.1491 20.9281 46.7537 19.3177C48.3576 17.7079 49.9202 16.06 51.0845 14.7106C51.6657 14.0371 52.155 13.4295 52.5017 12.9337C52.6746 12.6864 52.8192 12.4569 52.9226 12.2542C53.0164 12.0702 53.1129 11.8403 53.1129 11.6143C53.1129 11.4191 53.053 11.2195 52.9767 11.0386C52.8973 10.8501 52.7842 10.6449 52.6432 10.4283C52.3609 9.99473 51.9473 9.48608 51.4069 8.9343C50.3246 7.82924 48.7079 6.52493 46.5436 5.27696C42.2114 2.77889 35.6741 0.5 26.8078 0.5C17.9363 0.5 11.4503 2.88784 7.1462 5.43921C4.99585 6.71388 3.38998 8.02941 2.303 9.10841C1.75997 9.64746 1.34267 10.1312 1.05057 10.5253C0.904783 10.7219 0.78638 10.9014 0.698462 11.0581C0.617031 11.2033 0.539292 11.3678 0.510782 11.5252Z" stroke="black"/>
<rect x="14.1533" y="3.93823" width="15.8979" height="19.1237" rx="1.75" stroke="black" stroke-width="0.5"/>
<rect x="31.3574" y="3.93823" width="8.9086" height="19.1237" rx="1.75" stroke="black" stroke-width="0.5"/>
<path d="M4.49463 13.0968L12.5591 8.25806" stroke="black" stroke-width="0.5" stroke-linecap="round"/>
<path d="M3.41943 11.4839L12.5592 6.10754" stroke="black" stroke-width="0.5" stroke-linecap="round"/>
<path d="M5.30127 14.4408L12.5593 10.1398" stroke="black" stroke-width="0.5" stroke-linecap="round"/>
<path d="M6.64502 15.7849L12.2902 12.2903" stroke="black" stroke-width="0.5" stroke-linecap="round"/>
<path d="M7.98926 17.3979L12.828 14.4409" stroke="black" stroke-width="0.5" stroke-linecap="round"/>
<path d="M50.1934 13.0968L41.86 8.25806" stroke="black" stroke-width="0.5" stroke-linecap="round"/>
<path d="M51.269 11.4839L41.8604 6.10754" stroke="black" stroke-width="0.5" stroke-linecap="round"/>
<path d="M49.3872 14.4408L41.8603 10.1398" stroke="black" stroke-width="0.5" stroke-linecap="round"/>
<path d="M47.7744 15.5161L41.8604 12.0215" stroke="black" stroke-width="0.5" stroke-linecap="round"/>
<path d="M46.6987 17.3979L41.5912 14.4409" stroke="black" stroke-width="0.5" stroke-linecap="round"/>
</svg>
