<svg width="69" height="73" viewBox="0 0 69 73" fill="none" xmlns="http://www.w3.org/2000/svg">
<path fill-rule="evenodd" clip-rule="evenodd" d="M0 6.33846V12.6769L0.0991133 12.6651C1.24275 12.5286 2.09054 12.3396 3.05958 12.0049C4.85269 11.3856 6.46107 10.4094 7.93768 9.04409C8.40347 8.61338 9.07764 7.86964 9.50695 7.3128C11.0275 5.34066 12.0659 2.88954 12.435 0.401201C12.4596 0.235706 12.4834 0.0777418 12.4879 0.0501501L12.496 0H6.24801H0V6.33846ZM18.4531 0.0410318C18.4484 0.0636086 18.4286 0.209263 18.4091 0.364728C18.3895 0.520194 18.347 0.81152 18.3144 1.01212C17.6526 5.09514 15.9248 8.8423 13.2737 11.9441C13.0143 12.2475 12.2914 13.0172 11.9798 13.3215C9.04085 16.1924 5.35534 18.0996 1.42809 18.7821C0.998803 18.8567 0.614588 18.9127 0.29303 18.9476C0.193486 18.9583 0.0868404 18.9713 0.0560205 18.9765L0 18.9857V22.6961V26.4063L0.064639 26.4061C0.264658 26.4056 1.22344 26.3225 1.75818 26.2593C10.4631 25.2302 18.1887 19.6868 22.3815 11.4616C24.0729 8.1433 25.1507 4.34527 25.458 0.620038C25.4774 0.384332 25.4973 0.148408 25.5023 0.0957411L25.5111 0H21.9864H18.4616L18.4531 0.0410318ZM30.5286 0.341933C30.0316 8.43279 26.7326 16.1046 21.2618 21.8927C16.3374 27.1026 9.97744 30.4509 3.1113 31.4483C2.16449 31.5857 0.629119 31.7309 0.116351 31.7312L0 31.7314V35.9257C0 39.44 0.00377492 40.1201 0.0233218 40.1201C0.195589 40.1201 1.40177 40.0418 1.8616 40.0007C7.987 39.4541 13.8387 37.459 19.0728 34.1326C24.7403 30.5307 29.4753 25.5133 32.8744 19.5079C34.2758 17.032 35.4455 14.3728 36.3496 11.6075C37.4075 8.37181 38.1033 4.89067 38.3778 1.45892C38.4155 0.98792 38.4732 0.125521 38.4732 0.0326067C38.4732 0.00138596 38.3053 0 34.5115 0H30.5497L30.5286 0.341933ZM45.6437 0.0702649C45.6437 0.333288 45.5705 1.60639 45.5135 2.33426C45.4201 3.52686 45.3311 4.31214 45.0969 6.00644L45.0871 6.07694L45.1974 6.06424C45.4471 6.03552 45.9151 5.95692 46.2438 5.88848C48.3271 5.45467 50.2657 4.49146 51.9434 3.05641C52.6843 2.42264 53.4817 1.55742 54.0688 0.750355C54.2429 0.511094 54.4642 0.186503 54.5464 0.0501501L54.5766 0H50.1102H45.6437V0.0702649ZM61.5127 0.323696C60.0314 3.46816 57.7005 6.25163 54.8829 8.24077C52.776 9.72817 50.4357 10.7662 47.9966 11.295C46.7416 11.5672 45.3258 11.7253 44.1403 11.7259L43.9038 11.726L43.8756 11.8309C43.2767 14.0563 42.407 16.5531 41.5015 18.6467C41.393 18.8975 41.3057 19.1044 41.3074 19.1066C41.3147 19.1161 42.0466 19.186 42.4032 19.2113C44.9514 19.3922 47.5386 19.1726 50.022 18.5645C56.4735 16.9851 62.1499 12.7935 65.8033 6.9116C67.088 4.84304 68.1346 2.53172 68.8153 0.259869L68.8932 0H65.2792H61.6651L61.5127 0.323696ZM68.845 12.4875C67.8356 13.8383 66.5092 15.3157 65.2011 16.5461C60.9969 20.5006 55.8148 23.1767 50.2964 24.2434C47.0262 24.8755 43.6323 24.9472 40.3347 24.4541C39.9261 24.3931 39.1208 24.2522 38.8782 24.1994C38.7929 24.1809 38.7186 24.1713 38.7131 24.1781C38.7075 24.1849 38.6114 24.3465 38.4993 24.5371C38.2303 24.9944 37.5623 26.0586 37.2275 26.563C36.3347 27.9082 35.3317 29.2721 34.3391 30.4912L34.1832 30.6828L34.3071 30.725C36.7428 31.5542 39.7177 32.1835 42.4204 32.4414C43.8011 32.5731 44.3457 32.5969 45.9972 32.5972C47.4147 32.5976 47.6311 32.5915 48.6085 32.524C54.7375 32.1007 60.7135 30.1392 65.9577 26.8296C66.7892 26.3049 67.8852 25.5487 68.6424 24.9772L69 24.7073V18.4993C69 15.0849 68.998 12.2914 68.9957 12.2914C68.9933 12.2915 68.9255 12.3797 68.845 12.4875ZM30.2346 34.9349C29.7669 35.3916 28.8475 36.223 28.1994 36.7751C26.7737 37.9897 25.1146 39.2396 23.6616 40.1939C23.5361 40.2764 23.5117 40.2998 23.519 40.331C23.5405 40.4241 23.6521 41.0966 23.7078 41.4696C24.1785 44.6202 24.2252 47.8474 23.8463 51.0528C22.9868 58.3227 19.8473 65.1593 14.9618 70.3993C14.1011 71.3225 13.3283 72.0746 12.5055 72.7899C12.3917 72.8889 12.2914 72.9766 12.2822 72.985C12.2732 72.9934 14.736 73.0001 17.755 73L23.2442 72.9996L23.4744 72.6891C24.722 71.006 25.8238 69.2707 26.8253 67.4109C27.5078 66.1437 28.2323 64.601 28.7906 63.2256C31.3363 56.9557 32.404 50.1035 31.9046 43.2385C31.7559 41.1919 31.474 39.2088 31.0419 37.1658C30.8684 36.3455 30.4714 34.7389 30.443 34.7413C30.437 34.7418 30.3432 34.8289 30.2346 34.9349ZM66.8713 36.3484C65.1732 37.1668 63.2383 37.9404 61.3296 38.5639C60.9001 38.7043 59.837 39.0297 59.7523 39.0468C59.7185 39.0537 59.7179 39.0658 59.7235 39.6553C59.7499 42.4789 59.2885 45.2899 58.3638 47.9372C56.8917 52.1523 54.2641 55.8566 50.8309 58.5562C47.499 61.1763 43.527 62.7451 39.404 63.0697C38.3917 63.1494 37.2335 63.1562 36.2754 63.0881L36.1203 63.077L36.0452 63.2927C35.9041 63.6979 35.5391 64.6567 35.3103 65.2225C34.5672 67.0606 33.754 68.7871 32.8203 70.5095C32.7338 70.6691 32.6691 70.8057 32.6766 70.8132C32.6962 70.8327 33.5854 71.0173 34.0691 71.1022C36.3685 71.5062 38.6871 71.6195 40.9897 71.4403C48.7521 70.8366 55.9222 66.9442 60.943 60.6086C64.2414 56.4465 66.435 51.3952 67.2666 46.0469C67.6645 43.4878 67.7534 40.9206 67.5345 38.3056C67.4813 37.6703 67.4161 37.1082 67.2962 36.2555C67.29 36.2112 67.2771 36.1728 67.2677 36.1702C67.2582 36.1677 67.0798 36.2479 66.8713 36.3484ZM38.8696 40.0456C38.8696 40.0547 38.8886 40.2702 38.9119 40.5243C38.9902 41.3794 39.0497 42.3053 39.0972 43.4026C39.1263 44.0763 39.1262 46.6923 39.097 47.3599C38.9676 50.3206 38.6868 52.8131 38.1891 55.4189C38.1557 55.5937 38.1284 55.7447 38.1284 55.7547C38.1284 55.7787 38.7857 55.758 39.1799 55.7214C42.4212 55.421 45.3497 54.0872 47.8058 51.7927C48.1059 51.5124 48.7245 50.8592 48.9901 50.5422C49.878 49.4825 50.5814 48.3927 51.1678 47.1685C52.0109 45.4081 52.5254 43.5268 52.7011 41.5608C52.7308 41.2296 52.7625 40.7134 52.7626 40.5598L52.7627 40.4616L52.6635 40.4739C50.3577 40.7611 47.4847 40.8609 45.0232 40.7394C43.1228 40.6455 41.196 40.4305 39.3835 40.1101C38.8888 40.0228 38.8696 40.0203 38.8696 40.0456ZM17.78 43.4962C15.7351 44.4594 13.6337 45.2515 11.2292 45.9653L11.1424 45.991L11.1214 46.4886C10.9461 50.6631 9.64688 54.6088 7.33436 57.9903C6.16936 59.6938 4.70422 61.2708 3.1113 62.5357C2.22445 63.2399 1.16212 63.943 0.22846 64.4435L0.000137897 64.566L6.89483e-05 68.6549L0 72.7437L0.327849 72.6254C4.11845 71.2584 7.66459 68.8875 10.532 65.8031C14.8657 61.1415 17.5015 55.0726 18.0118 48.5818C18.0823 47.6861 18.0904 47.4444 18.0904 46.2292C18.0904 45.0136 18.0818 44.7597 18.0121 43.8859C17.9936 43.6552 17.9785 43.4562 17.9784 43.4437C17.9782 43.4089 17.9485 43.4168 17.78 43.4962ZM5.67962 47.1885C4.86986 47.3181 3.78605 47.4512 2.87479 47.5327C2.02277 47.609 0.720648 47.6879 0.304545 47.6884C0.208155 47.6885 0.100182 47.6937 0.064639 47.7L0 47.7112V53.3274V58.9437L0.0543485 58.9072C0.186643 58.8186 0.649321 58.455 0.905809 58.2379C3.7752 55.8105 5.62129 52.2715 6.02367 48.4268C6.09805 47.7162 6.12401 47.1203 6.08038 47.1253C6.06854 47.1267 5.88819 47.1551 5.67962 47.1885ZM68.6946 60.2145C66.0335 64.8929 62.4146 68.8745 58.0976 71.8737C57.6734 72.1684 57.0425 72.5832 56.6452 72.8287L56.3822 72.9912L62.6854 72.9957C66.152 72.9983 68.9911 72.9976 68.9942 72.9943C68.9975 72.9909 68.9982 69.9966 68.9957 66.3404L68.9913 59.6927L68.6946 60.2145Z" fill="black"/>
</svg>
